PathFileType	4	(X/Y/Z)	marker_experimental.trc																																																																																																																
DataRate	CameraRate	NumFrames	NumMarkers	Units	OrigDataRate	OrigDataStartFrame	OrigNumFrames																																																																																																												
200	200	7	38	mm	200	301	600																																																																																																												
Frame#	Time	C7			T10			CLAV			STRN			RBAK			LASI			RASI			SACR			LT1			LT2			LT3			LS1			LS2			LS3			LHEE			LTOE			RT1			RT2			RT3			RS1			RS2			RS3			RHEE			RTOE			LKNE			LKNM			LANK			LANM			RKNM			RKNE			RANM			RANK			LAJC			LKJC			RAJC			RKJC			RHJC			LHJC		
		X1	Y1	Z1	X2	Y2	Z2	X3	Y3	Z3	X4	Y4	Z4	X5	Y5	Z5	X6	Y6	Z6	X7	Y7	Z7	X8	Y8	Z8	X9	Y9	Z9	X10	Y10	Z10	X11	Y11	Z11	X12	Y12	Z12	X13	Y13	Z13	X14	Y14	Z14	X15	Y15	Z15	X16	Y16	Z16	X17	Y17	Z17	X18	Y18	Z18	X19	Y19	Z19	X20	Y20	Z20	X21	Y21	Z21	X22	Y22	Z22	X23	Y23	Z23	X24	Y24	Z24	X25	Y25	Z25	X26	Y26	Z26	X27	Y27	Z27	X28	Y28	Z28	X29	Y29	Z29	X30	Y30	Z30	X31	Y31	Z31	X32	Y32	Z32	X33	Y33	Z33	X34	Y34	Z34	X35	Y35	Z35	X36	Y36	Z36	X37	Y37	Z37	X38	Y38	Z38
																																																																																																																			
301	1.5	-401.240845	994.779419	793.28064	-394.058228	820.407227	758.310303	-404.844055	952.796082	909.240906	-401.732269	822.538391	951.384338	-489.045563	938.343445	763.859436	-291.63736	653.354187	893.228271	-506.067169	650.807861	891.425537	-396.859467	699.016602	741.644897	-229.935242	484.977509	881.282776	-225.507401	396.168884	838.624573	-235.668137	411.53775	981.327209	-221.587311	236.880753	862.69519	-209.653427	204.512573	744.866699	-238.101044	140.796082	870.262817	-282.225067	58.926311	711.541382	-275.159424	49.302914	852.950073	-551.957275	488.872864	863.204346	-535.353394	402.316467	824.419922	-557.75293	423.630096	962.393372	-547.728638	252.980469	894.595215	-568.685364	220.017639	777.624207	-535.130249	157.929184	901.985535	-495.127075	57.338108	733.256897	-491.815918	49.570686	875.615845	-233.563507	329.978516	902.190491	-328.798706	306.22818	932.952515	-251.824783	43.435555	755.110535	-319.233368	40.402176	760.70343	-431.244019	320.387756	937.263123	-536.119263	325.331116	913.662048	-455.129517	56.762535	782.624573	-527.985046	44.617828	780.529968	-285.529075	41.918865	757.906983	-281.181106	318.103348	917.571503	-491.557282	50.690182	781.577271	-483.681641	322.859436	925.462585	-475.657534	593.5297	823.690872	-319.535405	595.38363	825.003407
302	1.505	-401.285553	994.782043	793.256287	-394.073334	820.397766	758.316467	-404.878174	952.814636	909.241638	-401.726196	822.546631	951.398132	-489.083008	938.314331	763.844971	-291.589386	653.365173	893.250183	-505.996155	650.80072	891.515808	-396.823761	699.02594	741.68042	-229.870712	484.96344	881.288757	-225.467529	396.164734	838.632812	-235.603638	411.515533	981.328979	-221.55867	236.864471	862.69989	-209.636642	204.507355	744.871277	-238.076096	140.787491	870.271057	-282.315369	59.006153	710.930298	-275.155457	49.300858	852.947815	-551.922424	488.903351	863.227966	-535.345215	402.351288	824.432434	-557.752991	423.646393	962.420837	-547.741516	253.021896	894.604309	-568.645508	220.087372	777.603149	-535.16803	157.967407	901.972778	-495.110138	57.337292	733.25824	-491.823059	49.573017	875.614868	-233.496017	329.985291	902.168518	-328.748871	306.217377	932.962463	-251.826736	43.430336	755.104736	-319.230835	40.403206	760.707275	-431.255951	320.384705	937.282837	-536.148315	325.352234	913.68689	-455.1315	56.779526	782.622803	-527.977661	44.623661	780.528076	-285.528786	41.916771	757.906005	-281.122444	318.101334	917.56549	-491.554581	50.701594	781.57544	-483.702133	322.86847	925.484863	-475.607191	593.533615	823.768375	-319.500245	595.400762	825.031152
303	1.51	-401.333435	994.788147	793.233215	-394.086914	820.390503	758.322937	-404.909271	952.830627	909.242676	-401.71698	822.554382	951.410828	-489.121857	938.289673	763.831177	-291.536469	653.377808	893.274841	-505.919891	650.796509	891.606445	-396.78653	699.036926	741.716064	-229.803864	484.955566	881.282776	-225.416977	396.17923	838.622498	-235.534592	411.494965	981.325806	-221.527283	236.849564	862.700562	-209.613647	204.50061	744.868408	-238.053452	140.779053	870.273315	-282.443146	59.112209	710.08429	-275.149567	49.298412	852.945129	-551.887085	488.935455	863.252808	-535.337891	402.386993	824.444336	-557.75592	423.66333	962.441528	-547.757263	253.067764	894.603394	-568.603027	220.159454	777.575623	-535.213623	158.018829	901.963867	-495.092194	57.336838	733.262268	-491.831726	49.573601	875.615356	-233.428833	329.988861	902.144897	-328.695648	306.207062	932.966003	-251.828552	43.424873	755.097229	-319.227783	40.401913	760.710876	-431.269135	320.381897	937.303833	-536.177673	325.375092	913.707764	-455.135284	56.804569	782.614258	-527.970459	44.630432	780.528442	-285.528167	41.913393	757.904053	-281.062241	318.097961	917.55545	-491.552872	50.7175	781.57135	-483.723404	322.878494	925.505799	-475.551241	593.540027	823.8467	-319.459683	595.419458	825.061451
304	1.515	-401.384552	994.796997	793.211731	-394.098694	820.384949	758.329956	-404.937592	952.846741	909.242004	-401.70343	822.563599	951.421448	-489.161865	938.268616	763.819458	-291.476654	653.393555	893.298218	-505.839966	650.800232	891.688477	-396.747864	699.049255	741.751953	-229.732742	484.954865	881.268066	-225.35672	396.209076	838.593628	-235.457809	411.478882	981.315674	-221.491501	236.837814	862.696228	-209.586304	204.496704	744.846008	-238.031937	140.770615	870.269226	-282.557617	59.219559	709.282532	-275.141785	49.296818	852.94342	-551.851807	488.968231	863.280762	-535.331787	402.42276	824.456482	-557.761047	423.683594	962.45697	-547.77478	253.111923	894.595764	-568.560852	220.229584	777.545776	-535.262329	158.073944	901.965576	-495.073456	57.337185	733.269165	-491.841492	49.57272	875.617249	-233.361649	329.987427	902.124084	-328.639954	306.198181	932.963928	-251.829391	43.420147	755.088196	-319.225128	40.399548	760.714417	-431.284119	320.380371	937.327148	-536.20697	325.398743	913.723267	-455.133179	56.822971	782.610107	-527.963135	44.637112	780.53064	-285.52726	41.909847	757.901307	-281.000801	318.092804	917.544006	-491.548157	50.730041	781.570373	-483.745544	322.889557	925.525207	-475.490064	593.551326	823.919438	-319.411758	595.439529	825.091493
305	1.52	-401.438721	994.807617	793.192017	-394.108856	820.380554	758.337708	-404.964539	952.866272	909.239014	-401.685577	822.57605	951.429688	-489.202911	938.250366	763.811218	-291.408783	653.414368	893.315002	-505.759613	650.809814	891.759949	-396.708466	699.062805	741.787659	-229.658051	484.959625	881.247925	-225.290619	396.245758	838.552612	-235.371292	411.46933	981.297607	-221.450226	236.830383	862.685852	-209.554947	204.498749	744.794128	-238.010345	140.763245	870.257812	-282.620636	59.306831	708.731689	-275.132355	49.2967	852.943115	-551.817871	489.001007	863.312256	-535.327332	402.457916	824.469238	-557.767578	423.706329	962.469299	-547.793518	253.147278	894.588928	-568.521912	220.293686	777.517822	-535.311035	158.116135	901.973389	-495.054016	57.338547	733.278625	-491.851807	49.570724	875.620361	-233.29184	329.982544	902.109131	-328.583282	306.191833	932.959656	-251.828613	43.416962	755.078186	-319.223328	40.397041	760.718262	-431.302063	320.380707	937.353149	-536.236267	325.421844	913.733459	-455.125122	56.827595	782.615051	-527.955505	44.642593	780.533813	-285.52597	41.907001	757.898224	-280.937561	318.087189	917.534394	-491.540314	50.735094	781.574432	-483.769165	322.901275	925.543304	-475.426134	593.564882	823.984169	-319.356048	595.461273	825.116412
306	1.525	-401.496033	994.819275	793.174438	-394.117737	820.377258	758.346191	-404.99234	952.891663	909.234131	-401.664703	822.592773	951.435974	-489.244781	938.233948	763.807007	-291.332642	653.441833	893.320862	-505.681549	650.818481	891.826538	-396.669342	699.077393	741.822754	-229.582413	484.965942	881.224365	-225.226334	396.276855	838.510071	-235.275253	411.466766	981.272095	-221.403152	236.827652	862.66864	-209.521042	204.505417	744.721191	-237.98819	140.758438	870.239319	-282.635681	59.365795	708.449646	-275.121887	49.297916	852.94397	-551.786743	489.033447	863.346436	-535.324951	402.491821	824.482361	-557.77478	423.727386	962.480896	-547.813965	253.165939	894.591248	-568.488586	220.348709	777.494812	-535.359924	158.130981	901.97644	-495.034454	57.340885	733.290222	-491.862457	49.567944	875.62439	-233.217697	329.978455	902.099182	-328.52713	306.188141	932.956787	-251.82576	43.415916	755.06781	-319.222504	40.395081	760.722778	-431.3237	320.383026	937.380798	-536.265747	325.443665	913.739136	-455.117157	56.825371	782.622498	-527.947693	44.646503	780.536743	-285.524132	41.905499	757.895294	-280.872413	318.083298	917.527985	-491.532425	50.735937	781.57962	-483.794724	322.913345	925.559967	-475.362602	593.575162	824.043825	-319.293771	595.485241	825.131852
307	1.53	-401.55661	994.831421	793.158997	-394.126038	820.375427	758.355408	-405.023285	952.922913	909.228577	-401.642456	822.614319	951.441284	-489.287415	938.218201	763.806824	-291.249207	653.476379	893.31366	-505.606262	650.821167	891.894104	-396.63147	699.092712	741.856628	-229.509109	484.969574	881.197815	-225.171478	396.292633	838.474854	-235.171738	411.470428	981.241028	-221.350769	236.8293	862.644409	-209.490433	204.512955	744.654602	-237.965729	140.756516	870.217407	-282.625671	59.389824	708.394043	-275.111053	49.299671	852.945557	-551.759705	489.065674	863.38147	-535.32489	402.524048	824.495239	-557.782593	423.743317	962.49292	-547.837036	253.163498	894.606873	-568.462097	220.393707	777.477417	-535.413513	158.129227	901.972656	-495.015808	57.343937	733.302917	-491.873138	49.564892	875.628662	-233.140503	329.979828	902.089539	-328.47171	306.187164	932.958679	-251.820709	43.417305	755.057678	-319.222321	40.394333	760.727905	-431.348694	320.38736	937.409302	-536.295288	325.464386	913.741577	-455.114868	56.827557	782.622681	-527.940002	44.649372	780.538086	-285.521515	41.905819	757.892791	-280.806106	318.083496	917.524109	-491.527435	50.738464	781.580383	-483.821991	322.925873	925.57544	-475.301093	593.57868	824.102109	-319.226877	595.511951	825.135694
